<?xml version="1.0" standalone="no"?>
<!DOCTYPE svg PUBLIC "-//W3C//DTD SVG 20010904//EN"
 "http://www.w3.org/TR/2001/REC-SVG-20010904/DTD/svg10.dtd">
<svg version="1.0" xmlns="http://www.w3.org/2000/svg"
 width="50px"    height="50px" viewBox="0 0 1024.000000 1024.000000"
 preserveAspectRatio="xMidYMid meet">

<g transform="translate(0.000000,1024.000000) scale(0.100000,-0.100000)"
 data-original="#000000" stroke="none">
<path d="M2343 8513 l2 -638 115 -1 c63 0 241 -4 395 -9 l280 -8 0 647 0 646
-397 0 -397 0 2 -637z m354 303 c23 -8 58 -12 85 -9 39 5 47 2 62 -18 20 -29
21 -73 1 -89 -8 -7 -36 -15 -63 -17 -26 -3 -66 -12 -88 -20 -38 -14 -45 -13
-79 3 -72 34 -80 82 -23 136 34 32 49 34 105 14z"/>
<path d="M4309 9104 c-30 -21 -83 -60 -119 -88 -234 -182 -501 -206 -715 -64
-33 22 -77 57 -97 76 -29 28 -41 33 -50 24 -14 -14 -25 -1047 -11 -1055 4 -3
40 22 78 55 94 80 225 144 335 164 103 19 273 12 410 -16 236 -48 415 -227
428 -426 l5 -74 71 -1 c39 -1 265 -2 502 -3 l432 -1 4 146 4 146 39 79 c67
133 192 238 327 274 32 8 85 11 155 8 89 -4 128 -12 223 -43 216 -71 417 -184
633 -356 139 -111 434 -413 575 -589 199 -249 245 -289 315 -276 51 9 71 37
62 83 -13 72 -107 316 -175 456 -215 444 -484 785 -845 1072 -230 183 -533
343 -749 396 -192 46 -238 49 -1032 49 l-752 0 -53 -36z"/>
<path d="M4587 7533 c-2 -4 -5 -385 -6 -846 -1 -461 -4 -844 -7 -852 -4 -10 6
-16 33 -20 21 -4 92 -22 158 -41 66 -18 161 -43 210 -54 116 -25 430 -103 520
-130 38 -11 72 -20 75 -20 3 0 5 438 5 974 l0 973 -475 5 c-261 3 -482 9 -491
12 -10 4 -19 4 -22 -1z m408 -258 l25 -24 0 -617 0 -618 -22 -23 c-25 -27 -49
-29 -83 -7 l-25 16 0 620 c0 419 3 626 11 639 9 18 40 37 62 38 4 1 19 -10 32
-24z"/>
<path d="M5943 7473 l-163 -3 0 -169 0 -168 63 -6 c35 -3 121 -3 190 0 l127 6
0 106 c0 58 -3 136 -7 174 -5 60 -8 67 -27 65 -12 -1 -94 -4 -183 -5z"/>
<path d="M6394 7000 l-2 -480 222 -1 c121 0 263 -4 315 -7 l94 -7 -7 80 c-3
44 -6 263 -6 488 l0 407 -307 0 -308 0 -1 -480z"/>
<path d="M4295 7463 c-194 -45 -293 -85 -463 -186 -405 -240 -623 -627 -624
-1102 -1 -198 34 -353 118 -533 127 -272 327 -472 645 -641 127 -68 197 -91
494 -161 575 -137 874 -216 1157 -305 184 -58 274 -110 375 -218 80 -86 127
-172 153 -277 50 -209 3 -397 -129 -523 -61 -58 -104 -84 -188 -111 l-53 -18
0 -430 0 -431 78 7 c174 14 403 108 568 232 118 89 319 314 357 400 6 16 29
58 49 94 47 85 102 258 123 390 21 137 22 375 0 495 -34 193 -131 428 -243
590 -176 255 -521 486 -827 555 -44 10 -179 43 -300 74 -335 85 -820 202 -915
221 -238 47 -347 93 -478 203 -154 129 -212 348 -147 552 25 78 33 90 99 156
64 64 142 113 219 138 14 5 17 18 17 93 0 48 -3 125 -7 171 -6 80 -7 82 -32
82 -14 0 -62 -15 -107 -33 -239 -97 -431 -288 -505 -502 -73 -213 -38 -503 84
-687 62 -94 199 -226 296 -285 131 -81 255 -123 641 -218 1032 -253 1127 -281
1344 -401 102 -57 130 -79 236 -180 229 -220 348 -595 296 -931 -29 -188 -121
-394 -240 -537 -43 -51 -193 -176 -296 -246 -73 -50 -118 -54 -150 -13 -14 19
-20 38 -18 62 3 30 10 41 50 66 26 17 80 51 120 77 175 112 340 343 385 538
27 118 23 359 -7 470 -48 176 -115 287 -252 415 -159 149 -281 211 -588 301
-196 57 -279 78 -530 135 -193 43 -714 175 -790 199 -214 69 -450 235 -580
409 -131 174 -198 390 -187 601 10 200 72 373 191 533 137 184 381 334 589
362 l47 6 0 175 0 174 -27 -1 c-16 -1 -37 -3 -48 -6z"/>
<path d="M5948 6983 l-168 -3 0 -180 0 -180 194 0 c176 0 194 2 197 18 2 9 3
92 1 185 l-3 167 -27 -2 c-15 -1 -102 -4 -194 -5z"/>
<path d="M4574 2978 l1 -1623 97 47 c137 66 226 82 433 75 187 -5 278 -26 393
-88 41 -21 74 -39 75 -39 3 0 -2 2993 -5 2994 -9 5 -172 53 -293 85 -77 21
-176 50 -221 64 -44 14 -130 35 -189 47 -60 11 -143 29 -186 40 -43 11 -84 20
-92 20 -13 0 -15 -197 -13 -1622z m420 1327 c19 -15 20 -43 24 -1267 l4 -1253
-22 -27 c-26 -34 -62 -36 -90 -6 -20 21 -20 32 -22 847 -2 454 -3 1019 -3
1254 l0 429 24 19 c28 23 59 24 85 4z"/>
<path d="M3500 3469 c-102 -4 -221 -5 -265 -2 l-80 5 0 -329 c0 -180 -4 -394
-9 -475 l-9 -147 224 6 c197 5 273 1 414 -19 20 -3 20 3 22 382 1 212 -1 431
-4 488 l-5 102 -51 -2 c-29 -1 -135 -5 -237 -9z"/>
<path d="M4064 3403 l-61 -4 -6 -52 c-4 -29 -7 -222 -7 -429 l0 -378 196 0
196 0 -7 58 c-4 31 -7 225 -7 430 l1 372 -78 0 c-43 0 -98 2 -122 4 -24 2 -72
1 -105 -1z"/>
<path d="M4965 1333 c-60 -7 -171 -36 -213 -55 -24 -12 -49 -33 -58 -49 -13
-25 -12 -28 1 -23 10 4 19 -6 31 -35 9 -23 21 -41 27 -41 6 0 7 -3 4 -6 -4 -4
-19 1 -34 10 l-28 17 27 -24 c39 -37 120 -63 249 -83 97 -15 129 -16 214 -6
135 15 287 64 320 104 18 22 22 34 16 46 -15 28 -50 61 -80 77 -93 47 -346 84
-476 68z"/>
</g>
</svg>

